<?xml version="1.0" encoding="utf-8"?>
<!-- Generator: Adobe Illustrator 24.0.1, SVG Export Plug-In . SVG Version: 6.00 Build 0)  -->
<svg version="1.1" id="Layer_1" xmlns="http://www.w3.org/2000/svg" xmlns:xlink="http://www.w3.org/1999/xlink" x="0px" y="0px"
	 viewBox="0 0 255 97" style="enable-background:new 0 0 255 97;" xml:space="preserve">
<style type="text/css">
	.st0{fill:#0064BF;}
	.st1{fill:#1DA7E0;}
	.st2{fill:#368930;}
	.st3{fill:#47A01A;}
	.st4{fill:#C3CC00;}
	.st5{fill:#000F8F;}
	.st6{fill:#FFFFFF;}
</style>
<g id="custom_1">
	<g id="Grupo_1" transform="translate(-0.001)">
		<path id="Trazado_895" class="st0" d="M61.1,57.9c-0.3-0.3-0.7-0.8-1-1.2C60.5,57.1,60.8,57.6,61.1,57.9 M76.8,37.7
			c-0.3-1-0.7-2.2-1-3.4c-0.4-1.7-1.2-3.5-2.2-5h-0.1c0.9,1.3,1.4,2.8,1.7,4.5c0.1,0.8,0.2,1.5,0.2,2.3c0,7.9-7.9,17.9-11.2,22
			c-0.5,0.9-1.7,1.1-2.6,0.4c-0.2-0.1-0.3-0.3-0.5-0.5c0.1,0.1,0.3,0.3,0.4,0.4c1.1,1,2.2,2,3.4,2.9c2.1,1.6,4.4,2.9,6.9,4
			c0.2,0.1,0.4,0.2,0.7,0.3c0.2,0.1,0.5,0.2,0.8,0.3C78.4,57.6,79.7,47.3,76.8,37.7"/>
		<path id="Trazado_896" class="st1" d="M95.5,43.4C89.6,31.8,78,24.2,65,23.5c1.5,0.3,3.1,0.9,4.5,1.6c1.7,1.1,3.2,2.5,4.3,4.2h0.1
			c1,1.5,1.7,3.3,2.2,5c0.3,1.2,0.7,2.3,1,3.4c2.7,9.6,1.5,19.9-3.5,28.4c1,0.4,2,1,2.9,1.6c3.4,2.3,4.7,4.9,3.1,9.5
			C86.3,67.2,93.2,54.8,95.5,43.4"/>
		<path id="Trazado_897" class="st2" d="M75,4.8c-14.1,2.9-24.2,15-24.9,29.3c1.1-7,7.6-11.8,14.6-10.7c0.1,0,0.2,0,0.3,0
			c13,0.8,24.6,8.3,30.5,19.9l0,0c0-0.2,0.1-0.4,0.1-0.5c0.1-0.3,0.1-0.7,0.2-1c0.1-0.3,0.1-0.7,0.1-1c0-0.3,0.1-0.5,0.1-0.9
			c0-0.4,0.1-0.8,0.1-1.2c0-0.2,0-0.4,0.1-0.7c0-0.7,0.1-1.2,0.1-1.9C96.3,22.3,87.8,10,75,4.8"/>
		<path id="Trazado_898" class="st3" d="M65,61.4c-1.2-0.9-2.3-1.9-3.4-2.9c-0.1-0.1-0.3-0.3-0.4-0.4c0,0,0,0-0.1-0.1l0,0
			c-0.3-0.4-0.7-0.8-1-1.2c-0.1-0.2-0.3-0.3-0.4-0.5c-3.8-4.8-9.8-13.5-9.8-20.1l0,0V36c0-0.7,0.1-1.3,0.1-1.9
			C50.6,19.8,60.9,7.8,74.9,4.8c-0.4-0.2-1-0.3-1.4-0.5l0,0C73,4.1,72.5,4,72,3.8h-0.1c-0.4-0.1-1-0.2-1.4-0.3h-0.2
			c-0.4-0.1-0.9-0.2-1.3-0.3c-0.1,0-0.2,0-0.3-0.1C68.2,3,67.9,3,67.4,2.9c-0.2,0-0.3,0-0.5-0.1c-0.3,0-0.7-0.1-1.1-0.1
			c-0.3,0-0.5,0-0.9-0.1c-0.3-0.1-0.5,0-0.8-0.1c-0.5,0-1.1,0-1.6,0c-0.5,0-1.1,0-1.6,0c-0.2,0-0.3,0-0.5,0c-0.3,0-0.8,0-1.1,0.1
			c-0.2,0-0.4,0-0.7,0.1c-0.3,0-0.7,0.1-1,0.1c-0.2,0-0.4,0.1-0.8,0.1S56.3,3,56,3c-0.2,0-0.5,0.1-0.8,0.2c-0.3,0.1-0.5,0.1-0.9,0.2
			c-0.1,0.2-0.4,0.2-0.7,0.3c-0.2,0.1-0.5,0.1-0.8,0.2c-0.2,0.1-0.5,0.1-0.8,0.2c-0.2,0.1-0.5,0.2-0.8,0.2c-0.2,0.1-0.5,0.2-0.8,0.3
			C50.4,4.8,50.2,4.9,50,5c-0.2,0.1-0.5,0.2-0.8,0.3c-0.2,0.1-0.4,0.2-0.7,0.3C48.3,5.8,48,5.9,47.8,6c-0.2,0.1-0.4,0.2-0.7,0.3
			c-0.2,0.1-0.5,0.3-0.8,0.4C46.1,6.9,46,7,45.8,7.1c-0.2,0.1-0.5,0.3-0.8,0.4c-0.2,0.1-0.3,0.2-0.5,0.3c-0.2,0.2-0.5,0.3-0.8,0.5
			c-0.1,0.1-0.3,0.2-0.4,0.3C43,9,42.8,9.2,42.5,9.3c-0.1,0.1-0.2,0.2-0.4,0.3c-0.3,0.2-0.5,0.4-0.9,0.7c-0.1,0.1-0.2,0.2-0.3,0.2
			c-0.3,0.2-0.5,0.5-0.9,0.8l0,0l0,0c-2.1,2-4,4.2-5.6,6.6c-1.3,6.2-1.2,12.7,0.3,18.9c2,7.5,6.9,13.9,13.5,17.7
			c1.2,0.7,2.3,1.3,3.5,2c1.2,0.7,2.4,1.3,3.6,1.9c2.5,1.2,4.8,2.3,7,3.2c4,1.7,7.5,3.1,10.3,4.4c-0.2-0.1-0.4-0.2-0.7-0.3
			C69.4,64.4,67.1,63,65,61.4"/>
		<path id="Trazado_899" class="st4" d="M76.3,67.7c-1-0.7-2-1.2-2.9-1.6c-0.2-0.1-0.5-0.2-0.8-0.3c-2.8-1.3-6.3-2.6-10.3-4.4
			c-2.2-0.9-4.5-2-7-3.2c-1.2-0.5-2.4-1.2-3.6-1.9c-1.1-0.7-2.3-1.2-3.5-2c-6.8-3.8-11.7-10.2-13.5-17.7C33.2,30.5,33,24,34.4,17.8
			v-0.1c-2.3,3.5-3.8,7.4-4.7,11.5l0,0c-0.2,1.1-0.4,2.2-0.5,3.3c0,0.1,0,0.1,0,0.2c0,0.4-0.1,0.9-0.1,1.4c0,0.1,0,0.2,0,0.3
			c0,0.5,0,1.1,0,1.5l0,0c0,0.5,0,1.2,0.1,1.7v0.1c0,0.5,0.1,1.1,0.1,1.6v0.1l0,0v0.1c0.1,0.5,0.1,1.1,0.2,1.6v0.2c0,0,0,0,0,0.1
			v0.1c0.1,0.5,0.2,1,0.3,1.5c0,0.1,0,0.1,0,0.2l0,0c0,0.1,0,0.2,0.1,0.2c0,0.1,0,0.1,0,0.2l0,0C33,57.5,42.5,72.4,50.5,83.4l0,0
			l0.4,0.5l0.4,0.7c0.2,0.3,0.4,0.7,0.7,0.9l0.4,0.5c0.2,0.3,0.4,0.7,0.7,0.9l0.4,0.5c0.2,0.3,0.4,0.7,0.8,0.9
			c0.1,0.1,0.2,0.3,0.3,0.4c0.2,0.3,0.5,0.7,0.8,1l0.3,0.3c0.2,0.3,0.5,0.7,0.8,1l0.2,0.2c0.3,0.3,0.5,0.7,0.8,1l0.1,0.1
			c0.3,0.3,0.5,0.8,0.9,1.1c1,1.4,2.5,2.3,4.3,2.4c1.6,0,3.2-0.8,4.2-2.2c4.5-5.2,8.6-10.7,12.6-16.4c0,0,0,0,0-0.1
			C81,72.7,79.8,70,76.3,67.7"/>
		<path id="Trazado_900" class="st5" d="M75.3,33.8c-0.3-1.5-0.9-3.1-1.7-4.5c-1.1-1.7-2.5-3.2-4.3-4.2c-1.3-0.9-2.8-1.4-4.4-1.6
			c-7-1.3-13.7,3.4-14.9,10.4c-0.1,0.8-0.2,1.4-0.2,2.2v0.1l0,0c0,6.6,6,15.2,9.8,20.1c0.1,0.2,0.3,0.3,0.4,0.5
			c0.3,0.4,0.7,0.9,1,1.2l0,0c0,0,0,0,0.1,0.1c0.5,0.9,1.7,1.1,2.6,0.5c0.2-0.1,0.3-0.3,0.5-0.5c3.4-4,11.2-14,11.2-22
			C75.5,35.3,75.5,34.5,75.3,33.8"/>
		<g>
			<path id="Trazado_901" class="st6" d="M109.9,33.7c0-1.1,0.6-2.3,1.7-2.7c5.4-1.6,10.9-2.3,16.6-2.3c14.4,0,21.9,8.9,21.9,23.1
				s-7.5,21.6-21.9,21.6c-1.8,0-3.6,0-5.4-0.2v14.6c0,1.3-1,2.4-2.4,2.5h-0.1h-8c-1.3,0-2.4-1-2.4-2.4v-0.1V33.7z M128.5,40.1
				c-1,0-4.3,0.1-5.7,1v20.5c1,0.1,3.5,0.1,4.4,0.1c4.9,0,9.3-2.4,9.3-10.1C136.4,44,134.6,40.1,128.5,40.1"/>
			<path id="Trazado_902" class="st6" d="M166.8,73.1c-10.3,0-17.1-4.1-17.1-12.5c0-5.1,2.1-10.1,8.2-11.4c-2.2-2.3-3.6-5.5-3.8-8.7
				c0-7.5,3.9-12.1,13.8-12.1c10.3,0,14.5,4.6,14.5,12.5c0,2.1-1.5,6.8-4.6,6.8h-4.8c-0.9,0.1-1.7-0.5-1.8-1.4c0-0.1,0-0.2,0-0.2
				c0.1-1.3,1.3-2.9,1.3-5.2c0-1.8-0.1-4.2-4.6-4.2c-2.9,0-3.9,1.6-3.9,4.2c0,1.5,0.7,2.8,1.8,3.7l19.1,18.9c1,0.8,2.2,1.2,3.4,1.2
				c0.6,0,1.1,0.3,1.5,0.7l1.6,2.2c0.3,0.3,0.5,0.9,0.5,1.3c0,1-1,2-2.1,2.9c-1.5,0.9-3.2,1.3-4.9,1.3c-2.5,0-5.2-2.8-6.8-4.1
				C175,71.8,171,73.2,166.8,73.1 M172.1,63.1l-7.6-7.5c-3.7,0.8-4.8,2.6-4.8,5.1c0,1.8,2.3,4.1,7.4,4.1
				C168.8,64.8,170.6,64.2,172.1,63.1"/>
			<path id="Trazado_903" class="st6" d="M203.2,62.4c1.9,0,6.8-0.2,6.8-2.8c0-5.9-23.4,0.4-23.4-17.4c0-7.2,4.7-13.5,18.7-13.5
				c3.7,0.2,7.5,0.6,11.2,1.4c1.3,0.2,2.7,1.2,2.7,2.4c0,0.8-0.1,2.3-0.4,5.9c-0.2,1.9-1.5,2.3-3.1,2.3c-2.6-0.3-6.2-0.6-7.1-0.6
				c-5.5,0-8.9,0.3-8.9,2.1c0,5.9,23.4-0.2,23.4,17.2c0,9-7.2,14-19.5,14c-4.7-0.1-9.3-1-13.8-2.4c-1-0.5-2.2-1.3-2.2-2.4
				c0.4-2,1-4.1,1.6-6c0.4-1,1.5-1.7,2.6-1.7c0.3,0,0.7,0,1,0.1C196.1,61.7,199.7,62.2,203.2,62.4"/>
			<path id="Trazado_904" class="st6" d="M130.9,82.4h1.8c1.1,0,2.1,1,2.1,2.2c0,1.1-1,2-2.1,2.1h-1v3.5h-0.9L130.9,82.4z
				 M131.8,85.9h0.9c0.9,0,1.3-0.4,1.3-1.4s-0.5-1.4-1.3-1.4h-0.9C131.8,83.1,131.8,85.9,131.8,85.9z"/>
			<path id="Trazado_905" class="st6" d="M139.3,82.4v0.7h-2.7v2.6h2v0.7h-2v2.9h2.8v0.7h-3.6v-7.6L139.3,82.4z"/>
			<path id="Trazado_906" class="st6" d="M143.8,82.4v0.7h-1.6v6.9h-0.9v-6.9h-1.6v-0.7H143.8z"/>
			<path id="Trazado_907" class="st6" d="M144.5,82.4h1.8c1-0.1,2,0.7,2.1,1.7c0,0.1,0,0.2,0,0.3c0.1,0.9-0.4,1.6-1.2,1.9l1.3,3.8
				h-0.9l-1.2-3.6h-1v3.6h-0.9L144.5,82.4z M145.4,85.8h0.7c1.2,0,1.6-0.4,1.6-1.3s-0.3-1.3-1.6-1.3h-0.7V85.8z"/>
			<path id="Trazado_908" class="st6" d="M151.7,90.1c-1.3,0-2.2-1-2.2-3.9s0.9-3.9,2.2-3.9c1.3,0,2.2,1,2.2,3.9
				S153,90.1,151.7,90.1 M151.7,83c-0.8,0-1.3,0.6-1.3,3.2c0,2.6,0.6,3.2,1.3,3.2c0.8,0,1.3-0.6,1.3-3.2
				C153.1,83.6,152.5,83,151.7,83 M151.7,82h-0.5l1-1.5h0.9L151.7,82z"/>
			<path id="Trazado_909" class="st6" d="M156,82.4v6.9h2.5v0.7h-3.3v-7.6H156z"/>
			<path id="Trazado_910" class="st6" d="M162.7,82.4v0.7h-2.7v2.6h2v0.7h-2v2.9h2.8v0.7h-3.6v-7.6L162.7,82.4z"/>
			<path id="Trazado_911" class="st6" d="M165.9,90.1c-1.3,0-2.2-1-2.2-3.9s0.9-3.9,2.2-3.9c1.3,0,2.2,1,2.2,3.9
				S167.2,90.1,165.9,90.1 M165.9,83c-0.8,0-1.3,0.6-1.3,3.2c0,2.6,0.6,3.2,1.3,3.2s1.3-0.6,1.3-3.2C167.2,83.6,166.6,83,165.9,83"
				/>
			<path id="Trazado_912" class="st6" d="M171.9,84.4c-0.1-0.8-0.3-1.4-1.2-1.4c-0.5,0-1,0.3-1,0.9V84c0,1.7,3,1.7,3,4.2
				c0.1,1-0.6,1.8-1.6,1.9c-0.1,0-0.3,0-0.3,0c-1,0-1.9-0.9-1.9-1.9c0-0.1,0-0.2,0-0.3h0.8c0,0.9,0.4,1.5,1.3,1.5
				c0.6,0,1.1-0.4,1.1-1c0-0.1,0-0.2,0-0.2c0-1.7-3-1.9-3-4.1c0-1,0.7-1.7,1.6-1.8c0.1,0,0.2,0,0.2,0c1.1,0,1.8,0.8,1.9,2.1
				L171.9,84.4z"/>
			<path id="Trazado_913" class="st6" d="M176.6,82.4l1.3,3.4l1.3-3.4h0.9l-1.7,4.4v3.2h-0.9v-3.2l-1.7-4.4H176.6z"/>
			<path id="Trazado_914" class="st6" d="M186.1,84.4c-0.1-0.8-0.3-1.4-1.2-1.4c-0.5,0-1,0.3-1,0.9V84c0,1.7,3,1.7,3,4.2
				c0.1,1-0.6,1.8-1.6,1.9c-0.1,0-0.3,0-0.3,0c-1,0-1.9-0.9-1.9-1.9c0-0.1,0-0.2,0-0.3h0.8c0,0.9,0.4,1.5,1.3,1.5
				c0.6,0,1.1-0.4,1.1-1c0-0.1,0-0.2,0-0.2c0-1.7-3-1.9-3-4.1c0-1,0.7-1.7,1.6-1.8c0.1,0,0.2,0,0.2,0c1.1,0,1.8,0.8,1.9,2.1
				L186.1,84.4z"/>
			<path id="Trazado_915" class="st6" d="M191.5,82.4v0.7h-2.7v2.6h2v0.7h-2v2.9h2.8v0.7H188v-7.6L191.5,82.4z"/>
			<path id="Trazado_916" class="st6" d="M192.7,82.4h1.8c1-0.1,2,0.7,2.1,1.7c0,0.1,0,0.2,0,0.3c0.1,0.9-0.4,1.6-1.2,1.9l1.3,3.8
				h-0.9l-1.2-3.6h-1v3.6h-0.9L192.7,82.4z M193.5,85.8h0.7c1.2,0,1.6-0.4,1.6-1.3s-0.3-1.3-1.6-1.3h-0.7V85.8z"/>
			<path id="Trazado_917" class="st6" d="M198.1,82.4l1.3,6.1l0,0l1.3-6.1h0.9l-1.8,7.6H199l-1.8-7.6H198.1z"/>
			<rect id="Rectángulo_180" x="202.5" y="82.4" class="st6" width="0.9" height="7.6"/>
			<path id="Trazado_918" class="st6" d="M208,84.8c-0.1-1.2-0.5-1.7-1.1-1.7c-1,0-1.4,0.9-1.4,3.2s0.4,3.2,1.4,3.2
				c0.8,0,1.2-0.5,1.2-1.9h0.9c0,1.7-0.8,2.7-2.1,2.7c-1.4,0-2.2-1-2.2-3.9s0.9-3.9,2.2-3.9c1.1,0,1.8,0.8,2,2.4L208,84.8z"/>
			<rect id="Rectángulo_181" x="210.2" y="82.4" class="st6" width="0.8" height="7.6"/>
			<path id="Trazado_919" class="st6" d="M214.4,90.1c-1.3,0-2.2-1-2.2-3.9s0.9-3.9,2.2-3.9c1.3,0,2.2,1,2.2,3.9
				S215.7,90.1,214.4,90.1 M214.4,83c-0.8,0-1.3,0.6-1.3,3.2c0,2.6,0.6,3.2,1.3,3.2c0.8,0,1.3-0.6,1.3-3.2
				C215.7,83.6,215.2,83,214.4,83"/>
			<path id="Trazado_920" class="st6" d="M220.5,84.4c-0.1-0.8-0.3-1.4-1.2-1.4c-0.5,0-1,0.3-1,0.9V84c0,1.7,3,1.7,3,4.2
				c0.1,1-0.6,1.8-1.6,1.9c-0.1,0-0.3,0-0.3,0c-1,0-1.9-0.9-1.9-1.9c0-0.1,0-0.2,0-0.3h0.8c0,0.9,0.4,1.5,1.3,1.5
				c0.6,0,1.1-0.4,1.1-1c0-0.1,0-0.2,0-0.2c0-1.7-3-1.9-3-4.1c0-1,0.7-1.7,1.6-1.8c0.1,0,0.2,0,0.2,0c1.1,0,1.8,0.8,1.9,2.1
				L220.5,84.4z"/>
		</g>
	</g>
</g>
</svg>
